# xmcd
#
# Track frame offsets:
#	150
#	18361
#	30604
#	43190
#	62844
#	79621
#	101178
#	124320
#	142864
#	156358
#	176667
#	194770
#
# Disc length: 2866 seconds
#
# Revision: 1
# Processed by: cddbd v1.5.2PL0 Copyright (c) Steve Scherf et al.
# Submitted via: audiograbber 1.83.01
#
DISCID=a80b300c
DTITLE=Michael Grimm - Michael Grimm
DYEAR=2005
DGENRE=Contemporary R and B
TTITLE0=I Don't Want to Be Alone
TTITLE1=Sit Down and Shut Up
TTITLE2=Logtown
TTITLE3=Let's Make Love Again
TTITLE4=Old Biloxi
TTITLE5=How Are You
TTITLE6=More Than I Can Say
TTITLE7=Dancing With Angels
TTITLE8=Ol' Jerry Walker
TTITLE9=Night Like Tonight
TTITLE10=Taking Out the Trash
TTITLE11=The Reason
EXTD=©2005 M.J.G. Publishing
EXTT0=
EXTT1=
EXTT2=
EXTT3=
EXTT4=
EXTT5=
EXTT6=
EXTT7=
EXTT8=
EXTT9=
EXTT10=
EXTT11=
PLAYORDER=
